<?xml version="1.0" encoding="UTF-8"?>
<svg id="_图层_1" data-name="图层 1" xmlns="http://www.w3.org/2000/svg" version="1.1" viewBox="0 0 668 691">
  <defs>
    <style>
      .cls-1 {
        fill: #d9d9d9;
        stroke-width: 0px;
      }
    </style>
  </defs>
  <path class="cls-1" d="M381.7,691H0v-338.8c109.4,28.6,229.5,144.9,332.2,274,2.1,2.6,4.2,5.2,6.2,7.9,14.8,18.8,29.2,37.9,43.2,56.9Z"/>
  <path class="cls-1" d="M554.8,691h-162.4c-14.4-20.4-29.4-41-44.9-61.4,15.7-7.4,31.5-12.7,46.8-14.7,20.5-2.6,51.8,9.4,87.8,29.5,2.3,1.3,4.6,2.6,7,4,20.9,12.1,43.2,26.7,65.8,42.6Z"/>
  <path class="cls-1" d="M668,596.8v94.2h-92.1c-26.5-19.3-53.1-37.3-77.8-52,29.1-29.2,60.5-51.2,91-55.9,31.1-4.8,57.2,1.8,79,13.7Z"/>
</svg>