<svg width="668" height="339" viewBox="0 0 668 339" fill="none" xmlns="http://www.w3.org/2000/svg">
<g clip-path="url(#clip0_155_215)">
<path d="M381.67 338.79H0V0C109.44 28.61 229.52 144.92 332.2 273.97C334.3 276.59 336.38 279.22 338.45 281.86C353.26 300.68 367.7 319.73 381.67 338.79Z" fill="#D9D9D9"/>
<path d="M554.79 338.79H392.4C377.98 318.36 362.96 297.78 347.46 277.35C363.12 269.91 378.95 264.61 394.25 262.65C414.72 260.02 446 272.04 482 292.19C484.3 293.48 486.63 294.8 488.98 296.16C509.88 308.26 532.2 322.87 554.79 338.79Z" fill="#D9D9D9"/>
<path d="M668 244.54V338.79H575.92C549.41 319.45 522.85 301.45 498.08 286.74C527.23 257.5 558.58 235.55 589.04 230.86C620.12 226.07 646.24 232.7 668 244.54Z" fill="#D9D9D9"/>
</g>
<defs>
<clipPath id="clip0_155_215">
<rect width="668" height="338.79" fill="white"/>
</clipPath>
</defs>
</svg>
