<svg width="894" height="974" viewBox="0 0 894 974" fill="none" xmlns="http://www.w3.org/2000/svg">
<path fill-rule="evenodd" clip-rule="evenodd" d="M39.0377 234.776C37.5816 234.269 36.0623 234 34.5 234C23.7304 234 15 246.76 15 262.5C15 278.24 23.7304 291 34.5 291C36.0623 291 37.5816 290.731 39.0376 290.224C35.0359 293.87 30.2036 296 25 296C11.1929 296 0 281.002 0 262.5C0 243.998 11.1929 229 25 229C30.2036 229 35.0359 231.13 39.0377 234.776Z" fill="#D9D9D9"/>
<path fill-rule="evenodd" clip-rule="evenodd" d="M176.095 0H62.0338L43 210H196L176.095 0Z" fill="#D9D9D9"/>
<path fill-rule="evenodd" clip-rule="evenodd" d="M893.285 874.149L743 846L873.777 759.962L867.373 759.17C866.483 759.06 865.583 759.252 864.816 759.715L707.82 854.422C704.762 856.267 705.471 860.891 708.942 861.734L871.799 901.285C873.423 901.68 875.121 901.023 876.057 899.638L893.285 874.149Z" fill="#D9D9D9"/>
<path fill-rule="evenodd" clip-rule="evenodd" d="M634.898 948.61C626.378 954.822 613.24 958.805 598.5 958.805C572.819 958.805 552 946.716 552 931.805C552 931.198 552.034 930.597 552.102 930C545.779 934.612 542 940.452 542 946.805C542 961.716 562.819 973.805 588.5 973.805C613.137 973.805 633.298 962.68 634.898 948.61Z" fill="#D9D9D9"/>
</svg>
