<svg width="166" height="200" viewBox="0 0 166 200" fill="none" xmlns="http://www.w3.org/2000/svg">
<path fill-rule="evenodd" clip-rule="evenodd" d="M160.488 20.3614C146.507 11.8818 130.102 6.99994 112.557 6.99994C107.725 6.99994 102.98 7.37013 98.3486 8.0837C50.0719 11.2218 11.8864 51.3731 11.8864 100.443C11.8864 151.561 53.3255 193 104.443 193C109.275 193 114.02 192.63 118.652 191.916C136.207 190.775 152.428 184.739 165.964 175.16C148.358 190.624 125.274 200 100 200C44.7715 200 0 155.228 0 100C0 44.7715 44.7715 0 100 0C122.732 0 143.692 7.58468 160.488 20.3614Z" fill="#D9D9D9"/>
</svg>
