<svg width="258" height="246" viewBox="0 0 258 246" fill="none" xmlns="http://www.w3.org/2000/svg">
<path fill-rule="evenodd" clip-rule="evenodd" d="M114 244.901C174.122 236.833 220.485 185.331 220.485 123C220.485 60.6693 174.122 9.16732 114 1.09919C119.556 0.374279 125.225 0 130.985 0C200.849 0 257.485 55.069 257.485 123C257.485 190.931 200.849 246 130.985 246C125.225 246 119.556 245.626 114 244.901Z" fill="#898989"/>
<path fill-rule="evenodd" clip-rule="evenodd" d="M160.488 37.3614C146.507 28.8818 130.102 23.9999 112.557 23.9999C107.725 23.9999 102.98 24.3701 98.3486 25.0837C50.0719 28.2218 11.8864 68.3731 11.8864 117.443C11.8864 168.561 53.3255 210 104.443 210C109.275 210 114.02 209.63 118.652 208.916C136.207 207.775 152.428 201.739 165.964 192.16C148.358 207.624 125.274 217 100 217C44.7715 217 0 172.228 0 117C0 61.7715 44.7715 17 100 17C122.732 17 143.692 24.5847 160.488 37.3614Z" fill="#D9D9D9"/>
</svg>
