<svg width="668" height="691" viewBox="0 0 668 691" fill="none" xmlns="http://www.w3.org/2000/svg">
<mask id="mask0_1_101" style="mask-type:alpha" maskUnits="userSpaceOnUse" x="0" y="-64" width="754" height="755">
<rect x="5" y="-59" width="744" height="745" fill="#242128" stroke="black" stroke-width="10" stroke-linejoin="round"/>
</mask>
<g mask="url(#mask0_1_101)">
<path d="M599.8 556.569C517.293 569.279 428.222 708.588 394 776.653L912 993C869.067 884.749 780.027 666.471 767.333 659.368C751.467 650.49 702.933 540.682 599.8 556.569Z" fill="white" stroke="black" stroke-width="10"/>
<path d="M596.8 571.569C514.293 584.279 425.222 723.588 391 791.653L909 1008C866.067 899.749 777.027 681.471 764.333 674.368C748.467 665.49 699.933 555.682 596.8 571.569Z" fill="#242424"/>
<path d="M405.013 590.358C337.628 599.007 260.261 672.307 230 707.875L741 808C657.081 731.849 472.397 581.709 405.013 590.358Z" fill="white" stroke="black" stroke-width="10"/>
<path d="M402.013 603.358C334.628 612.007 257.261 685.307 227 720.875L738 821C654.081 744.849 469.397 594.709 402.013 603.358Z" fill="#242424"/>
<path d="M-54.6667 301C-264.107 301 -414.156 559.058 -463 688.087L531 887C423.044 691.667 154.773 301 -54.6667 301Z" fill="white" stroke="black" stroke-width="10"/>
<path d="M-41.6667 334C-251.107 334 -401.156 592.058 -450 721.087L544 920C436.044 724.667 167.773 334 -41.6667 334Z" fill="#242424"/>
<circle cx="461" cy="270" r="84" fill="white" stroke="black" stroke-width="10"/>
</g>
</svg>
