<svg width="172" height="357" viewBox="0 0 172 357" fill="none" xmlns="http://www.w3.org/2000/svg">
<ellipse cx="97.5" cy="336" rx="59.5" ry="21" fill="#606060"/>
<path fill-rule="evenodd" clip-rule="evenodd" d="M142 216H29L42.1229 332.015C42.0414 332.34 42 332.669 42 333C42 340.18 61.4756 346 85.5 346C109.524 346 129 340.18 129 333C129 332.669 128.959 332.34 128.877 332.015L142 216Z" fill="white"/>
<path fill-rule="evenodd" clip-rule="evenodd" d="M29 216H142L128.877 332.015C128.959 332.34 129 332.669 129 333C129 340.18 109.524 346 85.5 346C74.7917 346 64.9871 344.844 57.4081 342.926L45.8771 240.985C45.9586 240.66 46 240.331 46 240C46 236.02 40.0167 232.459 30.5919 230.074L29 216Z" fill="#8B8B8B"/>
<path fill-rule="evenodd" clip-rule="evenodd" d="M142 216H29L42.1229 332.015C42.0414 332.34 42 332.669 42 333C42 340.18 61.4756 346 85.5 346C109.524 346 129 340.18 129 333C129 332.669 128.959 332.34 128.877 332.015L142 216Z" stroke="black" stroke-width="10" stroke-linejoin="round"/>
<ellipse cx="85.5" cy="216" rx="56.5" ry="26" fill="#8B8B8B" stroke="black" stroke-width="10"/>
<path d="M80.5565 218.292C81.8226 220.747 84.8384 221.71 87.2924 220.443C89.7465 219.177 90.7095 216.162 89.4434 213.708L80.5565 218.292ZM120.9 34.0789C115.702 38.1921 108.084 46.7069 100.265 58.1391C92.3832 69.6618 84.0943 84.4422 77.688 101.286C64.8907 134.933 59.4323 177.348 80.5565 218.292L89.4434 213.708C70.0676 176.152 74.8407 136.902 87.0347 104.841C93.1241 88.8305 101.021 74.7465 108.519 63.7847C116.078 52.7323 123.034 45.1424 127.105 41.9211L120.9 34.0789Z" fill="black"/>
<circle cx="104.225" cy="38.8664" r="24.0473" transform="rotate(26.1092 104.225 38.8664)" fill="#8B8B8B" stroke="black" stroke-width="10"/>
<circle cx="132.167" cy="70.4373" r="24.0473" transform="rotate(26.1092 132.167 70.4373)" fill="#8B8B8B" stroke="black" stroke-width="10"/>
<circle cx="108.228" cy="112.335" r="24.0473" transform="rotate(26.1092 108.228 112.335)" fill="#8B8B8B" stroke="black" stroke-width="10"/>
<circle cx="60.8665" cy="89.1233" r="24.0473" transform="rotate(26.1092 60.8665 89.1233)" fill="#8B8B8B" stroke="black" stroke-width="10"/>
<path d="M75.5739 189.361C73.2157 194.173 68.1114 197.622 60.9179 198.78C53.7398 199.935 44.928 198.682 36.3228 194.464C27.7177 190.247 21.329 184.05 17.8441 177.669C14.3519 171.275 13.9506 165.128 16.3087 160.316C18.6668 155.504 23.7712 152.055 30.9647 150.898C38.1428 149.743 46.9546 150.996 55.5598 155.213C64.1649 159.43 70.5536 165.627 74.0384 172.008C77.5307 178.403 77.932 184.55 75.5739 189.361Z" fill="#8B8B8B" stroke="black" stroke-width="10"/>
<path d="M138.574 155.316C136.216 150.504 131.111 147.055 123.918 145.898C116.74 144.743 107.928 145.996 99.3228 150.213C90.7177 154.43 84.329 160.627 80.8441 167.008C77.3519 173.403 76.9506 179.55 79.3087 184.361C81.6668 189.173 86.7712 192.622 93.9647 193.78C101.143 194.935 109.955 193.682 118.56 189.464C127.165 185.247 133.554 179.05 137.038 172.669C140.531 166.275 140.932 160.128 138.574 155.316Z" fill="#8B8B8B" stroke="black" stroke-width="10"/>
<circle cx="63.6768" cy="55.5985" r="24.0473" transform="rotate(26.1092 63.6768 55.5985)" fill="#8B8B8B" stroke="black" stroke-width="10"/>
<circle cx="94.2418" cy="73.132" r="17.9321" transform="rotate(26.1092 94.2418 73.132)" fill="#8B8B8B" stroke="black" stroke-width="10"/>
</svg>
